<?xml version="1.0" encoding="utf-8"?>
<!-- Generator: Adobe Illustrator 23.0.3, SVG Export Plug-In . SVG Version: 6.00 Build 0)  -->
<svg version="1.1" id="Capa_1" xmlns="http://www.w3.org/2000/svg" xmlns:xlink="http://www.w3.org/1999/xlink" x="0px" y="0px"
	 viewBox="0 0 511.6 511.6" style="enable-background:new 0 0 511.6 511.6;" xml:space="preserve">
<style type="text/css">
	.st0{fill:url(#SVGID_1_);}
</style>
<g>
	<linearGradient id="SVGID_1_" gradientUnits="userSpaceOnUse" x1="0" y1="255.8171" x2="511.634" y2="255.8171">
		<stop  offset="0" style="stop-color:#15e0a7"/>
		<stop  offset="1" style="stop-color:#15e0a7"/>
	</linearGradient>
	<path class="st0" d="M507.9,36.6c-2.5-1.1-5.5,0.1-9.1,3.7L296.1,243c-1.7,1.5-3,3.3-3.7,5.4V45.7c0-4.9-1.2-8-3.7-9.1
		c-2.5-1.1-5.5,0.1-9.1,3.7L76.8,243c-1.7,1.5-3,3.3-3.7,5.4V54.8c0-5-1.8-9.2-5.4-12.9c-3.6-3.6-7.9-5.4-12.8-5.4H18.3
		c-5,0-9.2,1.8-12.9,5.4C1.8,45.6,0,49.9,0,54.8v402c0,4.9,1.8,9.2,5.4,12.8c3.6,3.6,7.9,5.4,12.9,5.4h36.5c4.9,0,9.2-1.8,12.8-5.4
		c3.6-3.6,5.4-7.9,5.4-12.8V263.2c0.8,1.9,2,3.7,3.7,5.4l202.7,202.7c3.6,3.6,6.7,4.9,9.1,3.7c2.5-1.1,3.7-4.2,3.7-9.1V263.2
		c0.8,1.9,2,3.7,3.7,5.4l202.7,202.7c3.6,3.6,6.7,4.9,9.1,3.7c2.5-1.1,3.7-4.2,3.7-9.1V45.7C511.6,40.7,510.4,37.7,507.9,36.6z"/>
</g>
</svg>
